<?xml version="1.0" encoding="utf-8"?>
<!-- Generator: Adobe Illustrator 16.0.0, SVG Export Plug-In . SVG Version: 6.00 Build 0)  -->
<!DOCTYPE svg PUBLIC "-//W3C//DTD SVG 1.1//EN" "http://www.w3.org/Graphics/SVG/1.1/DTD/svg11.dtd">
<svg version="1.1" id="Layer_1" xmlns="http://www.w3.org/2000/svg" xmlns:xlink="http://www.w3.org/1999/xlink" x="0px" y="0px"
	 width="600px" height="600px" viewBox="0 0 600 600" enable-background="new 0 0 600 600" xml:space="preserve">
<g>
	<g>
		<path d="M69.453,278.894c-10.201,0-18.084,6.235-23.658,16.748c-0.025-0.301-0.062-0.653-0.117-1.056
			c-0.318-10.722-7.067-14.254-14.004-14.254c-0.178,0-0.35,0.006-0.525,0.009c-1.45-0.039-3.04,0.065-4.793,0.358
			c-4.236,0.709-11.042,4.021-12.73,7.954c0,0,8.686-1.959,6.872,12.938L8.646,357.508c-1.978,9.355,4.139,12.054,10.974,12.054h2.7
			c6.476,0,9.715-3.058,11.694-12.054l5.035-24.286c3.959-18.527,11.156-31.12,22.487-31.12c6.118,0,9.714,2.515,12.235,5.215
			c0.359,0.359,11.333-3.599,11.333-16.01C85.104,283.93,78.267,278.894,69.453,278.894z"/>
		<path d="M139.071,278.894c-30.762,0-55.227,22.845-55.227,54.868c0,21.409,13.67,37.238,42.455,37.238
			c15.113,0,25.546-3.957,32.203-10.433c3.417-3.599,4.855-6.117,4.855-10.795c0-8.277-10.433-10.073-10.792-9.534
			c-5.759,7.555-14.212,12.771-25.905,12.771c-13.854,0-21.409-7.556-21.409-19.788v-0.539c6.655,0.359,12.594,0.718,17.99,0.718
			c39.036,0,50.549-10.792,50.549-28.784C173.791,289.327,161.38,278.894,139.071,278.894z M120.901,317.751
			c-3.596,0-7.735-0.18-12.231-0.538c5.216-12.054,16.011-21.23,29.321-21.23c9.535,0,14.392,4.679,14.392,9.356
			C152.384,312.176,145.549,317.751,120.901,317.751z"/>
		<path d="M229.201,278.894c-28.244,0-50.189,24.286-50.189,51.81c0,25.547,17.99,40.297,43.353,40.297
			c12.956,0,23.389-4.676,29.503-10.792c3.779-3.778,5.938-7.917,5.938-11.694c0-8.814-11.335-11.153-11.874-10.256
			c-4.678,7.56-11.694,12.413-21.407,12.413c-13.851,0-22.127-9.176-22.127-21.948c0-14.931,10.974-29.5,27.344-29.5
			c12.413,0,19.429,7.194,21.227,16.909c0.359,1.44,16.19,1.082,16.19-12.052c0-4.317-1.978-9.536-6.655-14.211
			C254.387,283.749,244.134,278.894,229.201,278.894z"/>
		<path d="M326.524,278.894c-30.76,0-55.228,22.845-55.228,54.868c0,21.409,13.672,37.238,42.457,37.238
			c15.11,0,25.546-3.957,32.203-10.433c3.416-3.599,4.855-6.117,4.855-10.795c0-8.277-10.434-10.073-10.795-9.534
			c-5.755,7.555-14.213,12.771-25.904,12.771c-13.852,0-21.407-7.556-21.407-19.788v-0.539c6.655,0.359,12.592,0.718,17.99,0.718
			c39.036,0,50.551-10.792,50.551-28.784C361.246,289.327,348.833,278.894,326.524,278.894z M308.354,317.751
			c-3.596,0-7.735-0.18-12.233-0.538c5.218-12.054,16.012-21.23,29.324-21.23c9.534,0,14.392,4.679,14.392,9.356
			C339.837,312.176,333,317.751,308.354,317.751z"/>
		<path d="M408.739,279.073c-22.668,0-35.799,12.054-35.799,28.964c0,16.011,13.312,21.227,25.546,25.904
			c8.996,3.239,14.213,5.396,14.213,10.256c0,5.216-4.678,8.812-13.493,8.812c-12.055,0-23.206-6.835-29.325-14.932
			c-0.718-0.718-8.635,3.601-8.635,11.156c0,3.596,1.979,7.195,5.039,10.253c6.478,6.476,18.889,11.333,35.258,11.333
			c23.928,0,37.061-11.333,37.061-28.244c0-15.11-12.953-20.686-26.266-25.725c-10.434-3.958-15.831-6.117-15.831-11.153
			c0-4.678,4.498-8.817,13.133-8.817c10.792,0,20.87,6.478,26.264,14.574c0.721,0.9,9.535-3.06,9.535-11.514
			c0-3.6-1.438-6.837-4.316-9.715C434.465,283.749,422.952,279.073,408.739,279.073z"/>
		<path d="M494.371,296.881c10.792,0,20.868,6.478,26.264,14.574c0.721,0.9,9.535-3.06,9.535-11.514c0-3.6-1.44-6.837-4.318-9.715
			c-6.655-6.477-18.168-11.153-32.381-11.153c-22.668,0-35.799,12.054-35.799,28.964c0,16.011,13.311,21.227,25.546,25.904
			c8.994,3.239,14.211,5.396,14.211,10.256c0,5.216-4.676,8.812-13.493,8.812c-12.053,0-23.206-6.835-29.323-14.932
			c-0.718-0.718-8.633,3.601-8.633,11.156c0,3.596,1.976,7.195,5.037,10.253c6.476,6.476,18.889,11.333,35.258,11.333
			c23.928,0,37.059-11.333,37.059-28.244c0-15.11-12.951-20.686-26.264-25.725c-10.436-3.958-15.831-6.117-15.831-11.153
			C481.238,301.021,485.736,296.881,494.371,296.881z"/>
	</g>
	<g>
		<path d="M588.757,234.79c-4.129-2.617-9.852-4.989-22.259-2.913c-4.983,0.834-11.376,4.732-13.363,9.36
			c0,0,7.737-1.741,7.099,12.116l-0.307,3.539v0.001c-0.039,0.311-0.062,0.599-0.078,0.877l-5.191,64.405
			c0,8.47,1.906,11.012,8.683,11.012c4.658,0,5.153-2.542,7.695-8.683l21.46-71.646C595.658,243.933,593.261,238.896,588.757,234.79
			z"/>
		<path d="M570.724,356.344c0,8.095-6.561,14.656-14.656,14.656c-8.092,0-14.654-6.562-14.654-14.656
			c0-8.09,6.562-14.653,14.654-14.653C564.163,341.69,570.724,348.254,570.724,356.344z"/>
	</g>
</g>
</svg>
