<?xml version="1.0" encoding="utf-8"?>
<!-- Generator: Adobe Illustrator 16.0.0, SVG Export Plug-In . SVG Version: 6.00 Build 0)  -->
<!DOCTYPE svg PUBLIC "-//W3C//DTD SVG 1.1//EN" "http://www.w3.org/Graphics/SVG/1.1/DTD/svg11.dtd">
<svg version="1.1" id="Layer_1" xmlns="http://www.w3.org/2000/svg" xmlns:xlink="http://www.w3.org/1999/xlink" x="0px" y="0px"
	 width="600px" height="600px" viewBox="0 0 600 600" enable-background="new 0 0 600 600" xml:space="preserve">
<path d="M299.725,15.562c-157.306,0-284.844,127.519-284.844,284.824c0,157.311,127.538,284.829,284.844,284.829
	c157.296,0,284.824-127.518,284.824-284.829C584.549,143.081,457.021,15.562,299.725,15.562z M270.717,455.234
	c-20.219,0-36.611-16.393-36.611-36.621c0-20.218,16.392-36.61,36.611-36.61c20.228,0,36.61,16.393,36.61,36.61
	C307.327,438.842,290.944,455.234,270.717,455.234z M361.722,160.062l-53.606,179.003c-6.356,15.341-7.603,21.688-19.234,21.688
	c-16.928,0-21.688-6.347-21.688-27.509l12.79-160.907c0.039-0.701,0.018-1.421,0.018-2.19c0,0,0,0,0-0.01l0.936-8.839
	c1.597-34.625-17.637-30.273-17.637-30.273c4.964-11.554,20.973-21.298,33.433-23.381c30.993-5.188,45.314,0.739,55.633,7.281
	C363.617,125.185,369.626,137.761,361.722,160.062z"/>
</svg>
